PathFileType	4	(X/Y/Z)	C:/Users/cmwille/Documents/OptiTrack/OpenSim_Lab5_04202021/group4_jump_1.trc
DataRate	CameraRate	NumFrames	NumMarkers	Units	OrigDataRate	OrigDataStartFrame	OrigNumFrames
200	200	6	39	m	200	372	994
Frame#	Time	L.ASIS			L.Acromium			L.Ankle.Lat			L.Ankle.Med			L.Heel			L.Knee.Lat			L.Knee.Med			L.Midfoot.Lat			L.Midfoot.Sup			L.Shank.Front			L.Shank.Rear			L.Shank.Upper			L.Thigh.Front			L.Thigh.Rear			L.Thigh.Upper			L.Toe.Lat			L.Toe.Med			L.Toe.Tip			R.ASIS			R.Acromium			R.Ankle.Lat			R.Ankle.Med			R.Heel			R.Knee.Lat			R.Knee.Med			R.Midfoot.Lat			R.Midfoot.Sup			R.Shank.Front			R.Shank.Rear			R.Shank.Upper			R.Thigh.Front			R.Thigh.Rear			R.Thigh.Upper			R.Toe.Lat			R.Toe.Med			R.Toe.Tip			Sternum			Top.Head			V.Sacral			
		X1	Y1	Z1	X2	Y2	Z2	X3	Y3	Z3	X4	Y4	Z4	X5	Y5	Z5	X6	Y6	Z6	X7	Y7	Z7	X8	Y8	Z8	X9	Y9	Z9	X10	Y10	Z10	X11	Y11	Z11	X12	Y12	Z12	X13	Y13	Z13	X14	Y14	Z14	X15	Y15	Z15	X16	Y16	Z16	X17	Y17	Z17	X18	Y18	Z18	X19	Y19	Z19	X20	Y20	Z20	X21	Y21	Z21	X22	Y22	Z22	X23	Y23	Z23	X24	Y24	Z24	X25	Y25	Z25	X26	Y26	Z26	X27	Y27	Z27	X28	Y28	Z28	X29	Y29	Z29	X30	Y30	Z30	X31	Y31	Z31	X32	Y32	Z32	X33	Y33	Z33	X34	Y34	Z34	X35	Y35	Z35	X36	Y36	Z36	X37	Y37	Z37	X38	Y38	Z38	X39	Y39	Z39
372	1.86	0.196214	1.02784	0.47465	0.126726	1.52853	0.407947	0.0806773	0.11732	0.360856	0.0999095	0.122659	0.471383	0.00193839	0.0679194	0.414572	0.162831	0.529045	0.394433	0.176252	0.503982	0.520632	0.127998	0.0415763	0.336071	0.157689	0.0393321	0.467364	0.196482	0.44205	0.436554	0.160424	0.363475	0.385367	0.134994	0.47712	0.38339	0.147396	0.730416	0.377965	0.0385285	0.618453	0.447867	0.0240527	0.695924	0.452356	0.239094	0.0589533	0.336746	0.236748	0.049215	0.467048	0.30704	0.0686531	0.405317	0.169986	1.05864	0.786406	0.159905	1.5219	0.812686	0.0847025	0.126826	0.882742	0.116992	0.13066	0.77509	0.00794078	0.067133	0.818783	0.180014	0.528629	0.84862	0.193018	0.525511	0.723146	0.125429	0.0403517	0.911399	0.167045	0.0435454	0.783065	0.20542	0.46157	0.800343	0.188787	0.372061	0.839904	0.156705	0.477489	0.858716	0.205855	0.759816	0.854218	0.0777076	0.646722	0.839797	0.0571058	0.718735	0.832196	0.210224	0.038704	0.930708	0.241375	0.0453307	0.796218	0.311857	0.0693374	0.858302	0.301145	1.33349	0.596425	0.502736	1.65344	0.594457	0.0121519	1.08046	0.622514
373	1.865	0.194211	1.02789	0.474721	0.128612	1.52828	0.407819	0.0807192	0.117347	0.361005	0.099854	0.122512	0.471071	0.00203646	0.0679194	0.414565	0.164144	0.528781	0.394091	0.175646	0.501934	0.520623	0.127983	0.0415491	0.33605	0.157706	0.0393363	0.467343	0.197703	0.44181	0.43633	0.16134	0.36326	0.385291	0.136486	0.476932	0.383122	0.147316	0.730259	0.377852	0.0391482	0.61762	0.447568	0.0241457	0.694936	0.452023	0.238853	0.0581324	0.336814	0.236764	0.0491998	0.467051	0.307053	0.0686226	0.405322	0.168597	1.05821	0.786515	0.16123	1.52158	0.81257	0.0848013	0.126844	0.882733	0.117045	0.130354	0.774998	0.00797695	0.0671586	0.818753	0.180776	0.528432	0.84893	0.193861	0.52559	0.723413	0.126404	0.0413988	0.910844	0.167055	0.0435465	0.783065	0.206395	0.46148	0.800602	0.18944	0.371854	0.840072	0.157577	0.477313	0.858969	0.205338	0.759918	0.854464	0.0778255	0.646108	0.839921	0.0566811	0.71808	0.832534	0.210235	0.0387278	0.930702	0.241381	0.0453309	0.79621	0.311895	0.0692897	0.858303	0.301634	1.33228	0.596666	0.504798	1.65179	0.594424	0.0107395	1.08045	0.622567
374	1.87	0.192882	1.02725	0.4749	0.130485	1.52804	0.407667	0.0808071	0.117389	0.360972	0.100176	0.122876	0.471445	0.00205262	0.0680008	0.414564	0.165445	0.528646	0.393807	0.178663	0.50389	0.520153	0.128016	0.0415888	0.336084	0.157705	0.0393506	0.467334	0.198805	0.441287	0.435919	0.162354	0.363052	0.385106	0.137773	0.476731	0.382838	0.147315	0.730136	0.377632	0.0398876	0.616659	0.447223	0.0243021	0.693936	0.451684	0.238866	0.0581332	0.336821	0.236879	0.0493338	0.467283	0.307085	0.0685804	0.405321	0.167313	1.05771	0.786597	0.162597	1.52114	0.812456	0.0849239	0.126899	0.882734	0.117156	0.130389	0.774979	0.0080017	0.0672171	0.81872	0.181672	0.528122	0.849271	0.194704	0.525421	0.723574	0.126472	0.0415506	0.910886	0.167086	0.0435584	0.783063	0.207305	0.461255	0.800849	0.190208	0.371588	0.840293	0.158484	0.477146	0.859266	0.204863	0.759922	0.854491	0.077916	0.645458	0.839924	0.0564464	0.717313	0.832682	0.210234	0.0387425	0.930688	0.24138	0.0453312	0.796204	0.311928	0.0692307	0.858275	0.302263	1.33125	0.596815	0.506849	1.65013	0.594422	0.00941283	1.08023	0.622662
375	1.875	0.191961	1.02596	0.474983	0.132566	1.52767	0.407551	0.0809201	0.117427	0.360933	0.100297	0.122914	0.471385	0.00206901	0.0680679	0.414562	0.166917	0.528421	0.393471	0.17809	0.50172	0.520169	0.128066	0.0416706	0.336087	0.157708	0.0393818	0.467312	0.200202	0.44127	0.435841	0.163414	0.362904	0.384898	0.139125	0.476442	0.382544	0.147361	0.729996	0.377452	0.0407359	0.615627	0.446767	0.0245399	0.692803	0.451248	0.238907	0.0581139	0.336816	0.236899	0.0493187	0.467279	0.307103	0.0685501	0.405314	0.165801	1.05725	0.786795	0.163971	1.52066	0.812385	0.0850656	0.126974	0.882722	0.11727	0.13042	0.77495	0.00803205	0.0672709	0.818693	0.182664	0.527807	0.849515	0.195607	0.525296	0.723783	0.126486	0.041576	0.910879	0.167106	0.0435602	0.783066	0.208383	0.46096	0.801108	0.190974	0.371334	0.840505	0.159569	0.47691	0.859563	0.204369	0.760019	0.854622	0.0782024	0.644654	0.840196	0.0562966	0.716367	0.832907	0.210249	0.0387583	0.930675	0.241397	0.045306	0.796213	0.311983	0.0691814	0.85829	0.302744	1.33001	0.597031	0.508994	1.64844	0.594337	0.00792084	1.08008	0.622706
376	1.88	0.190029	1.02568	0.474889	0.134546	1.52728	0.407389	0.08105	0.117494	0.360879	0.10041	0.122995	0.471368	0.00210963	0.0681378	0.414532	0.1684	0.528235	0.393123	0.181305	0.503609	0.519707	0.128089	0.0416835	0.336079	0.157728	0.0393798	0.467289	0.20149	0.440774	0.435564	0.164643	0.362641	0.384815	0.140573	0.476196	0.382524	0.147491	0.729838	0.377229	0.0414099	0.614722	0.446544	0.0247926	0.691669	0.450875	0.238915	0.0581214	0.336807	0.236674	0.0489748	0.466874	0.307139	0.0685071	0.405323	0.164421	1.05671	0.786771	0.165474	1.52005	0.81221	0.0852207	0.127021	0.882731	0.117396	0.130434	0.774937	0.00807455	0.0673489	0.818665	0.183802	0.527598	0.849882	0.19664	0.525234	0.724012	0.126516	0.041632	0.910863	0.167012	0.0434985	0.783192	0.209634	0.460778	0.801412	0.191807	0.371021	0.840695	0.160745	0.476575	0.859767	0.203909	0.760092	0.85478	0.078498	0.643946	0.840449	0.0561087	0.715361	0.833126	0.210249	0.0387563	0.930654	0.24142	0.0453052	0.796226	0.31203	0.0691167	0.858308	0.303191	1.32867	0.597036	0.511076	1.64663	0.594334	0.00642531	1.07998	0.622788
377	1.885	0.188336	1.02518	0.475202	0.136904	1.52687	0.406889	0.0811982	0.117573	0.36082	0.100541	0.12308	0.47135	0.00214703	0.0682113	0.414524	0.169957	0.528025	0.392761	0.182688	0.503622	0.519432	0.128048	0.0416559	0.336108	0.157735	0.0394236	0.467257	0.202892	0.440426	0.435319	0.165785	0.362381	0.384703	0.142169	0.476101	0.382248	0.147601	0.729657	0.377107	0.0422692	0.613589	0.446146	0.0247801	0.690896	0.450618	0.238929	0.0581042	0.336827	0.236945	0.0492866	0.467303	0.307168	0.0684545	0.405327	0.162785	1.05612	0.78646	0.166951	1.51942	0.812128	0.0852716	0.127291	0.882793	0.117527	0.130486	0.774922	0.00813988	0.0674114	0.818657	0.184835	0.527331	0.850194	0.197846	0.52505	0.724209	0.126455	0.0415547	0.910791	0.167034	0.0434899	0.783217	0.210807	0.460551	0.80184	0.192715	0.370728	0.84093	0.161917	0.476309	0.860111	0.203443	0.760169	0.854937	0.0788884	0.643232	0.840709	0.0559789	0.7145	0.833448	0.210271	0.0387927	0.930642	0.241445	0.0452858	0.796233	0.312078	0.0690632	0.858318	0.303681	1.32732	0.597147	0.513271	1.6449	0.594368	0.00495322	1.07966	0.622798
